<svg id="Layer_1" data-name="Layer 1" xmlns="http://www.w3.org/2000/svg" viewBox="0 0 45 45"><defs><style>.cls-1{fill:#00a8e5;}</style></defs><title>Artboard 1</title><polygon class="cls-1" points="19.9 37.3 32.4 37.3 31.1 33 21.2 33 19.9 37.3"/><polygon class="cls-1" points="26.3 17.1 23.3 26.5 29.2 26.5 26.4 17.1 26.3 17.1"/><path class="cls-1" d="M21.6,7H3.6A3.12,3.12,0,0,0,.5,10.1v24a3.12,3.12,0,0,0,3.1,3.1h6.6Z"/><path class="cls-1" d="M44.5,12.4V10.1A3.12,3.12,0,0,0,41.4,7H31.1L42.3,37.1a3.12,3.12,0,0,0,2.2-3v-19H42.4V18H39.6V15.2H36.8V12.4h2.8V9.6h2.8v2.8Z"/></svg>